<mxfile host="app.diagrams.net" agent="Mozilla/5.0 (Macintosh; Intel Mac OS X 10_15_7) AppleWebKit/537.36 (KHTML, like Gecko) Chrome/130.0.0.0 Safari/537.36" version="24.8.6">
  <diagram id="axB7szs_uBeu4hfYstc7" name="Página-1">
    <mxGraphModel dx="1728" dy="963" grid="1" gridSize="10" guides="1" tooltips="1" connect="1" arrows="1" fold="1" page="1" pageScale="1" pageWidth="827" pageHeight="1169" math="0" shadow="0">
      <root>
        <mxCell id="0" />
        <mxCell id="1" parent="0" />
        <mxCell id="v1AuQ7H95rM6WsMichzJ-2" value="TELÉFONO" style="ellipse;whiteSpace=wrap;html=1;" parent="1" vertex="1">
          <mxGeometry x="440" y="272" width="112.5" height="75" as="geometry" />
        </mxCell>
        <mxCell id="EXCapHJ6gCYgwVX0uH0I-9" style="edgeStyle=orthogonalEdgeStyle;rounded=0;orthogonalLoop=1;jettySize=auto;html=1;entryX=0;entryY=0.5;entryDx=0;entryDy=0;endArrow=baseDash;endFill=0;" parent="1" source="EXCapHJ6gCYgwVX0uH0I-1" target="EXCapHJ6gCYgwVX0uH0I-7" edge="1">
          <mxGeometry relative="1" as="geometry">
            <Array as="points">
              <mxPoint x="850" y="424" />
              <mxPoint x="850" y="477" />
            </Array>
          </mxGeometry>
        </mxCell>
        <mxCell id="G3qJ_SjWnHiUUI0TjXIg-10" value="0:N" style="edgeLabel;html=1;align=center;verticalAlign=middle;resizable=0;points=[];" parent="EXCapHJ6gCYgwVX0uH0I-9" vertex="1" connectable="0">
          <mxGeometry x="-0.6014" y="3" relative="1" as="geometry">
            <mxPoint x="-17" y="3" as="offset" />
          </mxGeometry>
        </mxCell>
        <mxCell id="EXCapHJ6gCYgwVX0uH0I-1" value="COINCIDE" style="rhombus;whiteSpace=wrap;html=1;strokeWidth=1;" parent="1" vertex="1">
          <mxGeometry x="672.57" y="382" width="94.86" height="83" as="geometry" />
        </mxCell>
        <mxCell id="EXCapHJ6gCYgwVX0uH0I-5" value="PERSONAS" style="rounded=0;whiteSpace=wrap;html=1;strokeWidth=1;" parent="1" vertex="1">
          <mxGeometry x="364" y="452" width="100" height="50" as="geometry" />
        </mxCell>
        <mxCell id="EXCapHJ6gCYgwVX0uH0I-7" value="CITA" style="rounded=0;whiteSpace=wrap;html=1;strokeWidth=1;" parent="1" vertex="1">
          <mxGeometry x="939.9999999999999" y="447" width="120" height="60" as="geometry" />
        </mxCell>
        <mxCell id="SdneMGF3WSqkRSDgV3Lc-2" value="TELÉFONO" style="ellipse;whiteSpace=wrap;html=1;" parent="1" vertex="1">
          <mxGeometry x="451.25" y="279.5" width="90" height="60" as="geometry" />
        </mxCell>
        <mxCell id="SdneMGF3WSqkRSDgV3Lc-4" value="NOMBRE" style="ellipse;whiteSpace=wrap;html=1;" parent="1" vertex="1">
          <mxGeometry x="480" y="357" width="90" height="60" as="geometry" />
        </mxCell>
        <mxCell id="SdneMGF3WSqkRSDgV3Lc-5" value="&lt;u&gt;DNI&lt;/u&gt;" style="ellipse;whiteSpace=wrap;html=1;" parent="1" vertex="1">
          <mxGeometry x="374" y="204.5" width="90" height="60" as="geometry" />
        </mxCell>
        <mxCell id="SdneMGF3WSqkRSDgV3Lc-8" value="FOTO" style="ellipse;whiteSpace=wrap;html=1;" parent="1" vertex="1">
          <mxGeometry x="160" y="279.5" width="90" height="60" as="geometry" />
        </mxCell>
        <mxCell id="SdneMGF3WSqkRSDgV3Lc-14" value="FECHA" style="ellipse;whiteSpace=wrap;html=1;" parent="1" vertex="1">
          <mxGeometry x="919.9999999999999" y="357" width="90" height="60" as="geometry" />
        </mxCell>
        <mxCell id="F3HrLOQjKa00HK4MqhvZ-4" value="&lt;u&gt;CÓDIGO&lt;/u&gt;" style="ellipse;whiteSpace=wrap;html=1;" parent="1" vertex="1">
          <mxGeometry x="1020" y="347" width="90" height="60" as="geometry" />
        </mxCell>
        <mxCell id="F3HrLOQjKa00HK4MqhvZ-6" value="DESCRIPCIÓN" style="ellipse;whiteSpace=wrap;html=1;" parent="1" vertex="1">
          <mxGeometry x="1379.9999999999998" y="580.33" width="90" height="60" as="geometry" />
        </mxCell>
        <mxCell id="F3HrLOQjKa00HK4MqhvZ-7" value="DIRECCIÓN" style="ellipse;whiteSpace=wrap;html=1;dashed=1;" parent="1" vertex="1">
          <mxGeometry x="1417.4999999999998" y="382" width="90" height="60" as="geometry" />
        </mxCell>
        <mxCell id="F3HrLOQjKa00HK4MqhvZ-9" value="" style="endArrow=none;html=1;rounded=0;" parent="1" source="G3qJ_SjWnHiUUI0TjXIg-29" target="F3HrLOQjKa00HK4MqhvZ-7" edge="1">
          <mxGeometry width="50" height="50" relative="1" as="geometry">
            <mxPoint x="1392.5" y="442" as="sourcePoint" />
            <mxPoint x="1413.255" y="422.28999999999996" as="targetPoint" />
          </mxGeometry>
        </mxCell>
        <mxCell id="F3HrLOQjKa00HK4MqhvZ-10" value="" style="endArrow=none;html=1;rounded=0;entryX=0;entryY=0.5;entryDx=0;entryDy=0;" parent="1" source="G3qJ_SjWnHiUUI0TjXIg-29" target="F3HrLOQjKa00HK4MqhvZ-6" edge="1">
          <mxGeometry width="50" height="50" relative="1" as="geometry">
            <mxPoint x="1445.315" y="482.5999999999999" as="sourcePoint" />
            <mxPoint x="1189.9999999999998" y="407" as="targetPoint" />
          </mxGeometry>
        </mxCell>
        <mxCell id="x9cMc5ZENm_dU33en5SK-2" value="ELIGE" style="rhombus;whiteSpace=wrap;html=1;" parent="1" vertex="1">
          <mxGeometry x="374" y="552" width="81" height="75" as="geometry" />
        </mxCell>
        <mxCell id="zyg5xjp4BJOo1bfxlwmu-10" value="" style="endArrow=none;html=1;rounded=0;" parent="1" source="EXCapHJ6gCYgwVX0uH0I-5" target="SdneMGF3WSqkRSDgV3Lc-2" edge="1">
          <mxGeometry width="50" height="50" relative="1" as="geometry">
            <mxPoint x="550" y="497" as="sourcePoint" />
            <mxPoint x="600" y="447" as="targetPoint" />
          </mxGeometry>
        </mxCell>
        <mxCell id="zyg5xjp4BJOo1bfxlwmu-12" value="" style="endArrow=none;html=1;rounded=0;" parent="1" source="EXCapHJ6gCYgwVX0uH0I-5" target="SdneMGF3WSqkRSDgV3Lc-4" edge="1">
          <mxGeometry width="50" height="50" relative="1" as="geometry">
            <mxPoint x="550" y="497" as="sourcePoint" />
            <mxPoint x="600" y="447" as="targetPoint" />
          </mxGeometry>
        </mxCell>
        <mxCell id="zyg5xjp4BJOo1bfxlwmu-13" value="" style="endArrow=none;html=1;rounded=0;" parent="1" source="EXCapHJ6gCYgwVX0uH0I-5" target="SdneMGF3WSqkRSDgV3Lc-5" edge="1">
          <mxGeometry width="50" height="50" relative="1" as="geometry">
            <mxPoint x="550" y="497" as="sourcePoint" />
            <mxPoint x="600" y="447" as="targetPoint" />
          </mxGeometry>
        </mxCell>
        <mxCell id="zyg5xjp4BJOo1bfxlwmu-14" value="" style="endArrow=none;html=1;rounded=0;" parent="1" source="EXCapHJ6gCYgwVX0uH0I-5" target="SdneMGF3WSqkRSDgV3Lc-8" edge="1">
          <mxGeometry width="50" height="50" relative="1" as="geometry">
            <mxPoint x="550" y="497" as="sourcePoint" />
            <mxPoint x="600" y="447" as="targetPoint" />
          </mxGeometry>
        </mxCell>
        <mxCell id="zyg5xjp4BJOo1bfxlwmu-26" value="" style="endArrow=none;html=1;rounded=0;" parent="1" source="EXCapHJ6gCYgwVX0uH0I-7" target="F3HrLOQjKa00HK4MqhvZ-4" edge="1">
          <mxGeometry width="50" height="50" relative="1" as="geometry">
            <mxPoint x="810.1" y="587" as="sourcePoint" />
            <mxPoint x="860.1" y="537" as="targetPoint" />
          </mxGeometry>
        </mxCell>
        <mxCell id="zyg5xjp4BJOo1bfxlwmu-27" value="" style="endArrow=none;html=1;rounded=0;" parent="1" source="EXCapHJ6gCYgwVX0uH0I-7" target="SdneMGF3WSqkRSDgV3Lc-14" edge="1">
          <mxGeometry width="50" height="50" relative="1" as="geometry">
            <mxPoint x="810.1" y="587" as="sourcePoint" />
            <mxPoint x="860.1" y="537" as="targetPoint" />
          </mxGeometry>
        </mxCell>
        <mxCell id="G3qJ_SjWnHiUUI0TjXIg-3" value="" style="endArrow=none;html=1;rounded=0;" parent="1" source="x9cMc5ZENm_dU33en5SK-2" target="G3qJ_SjWnHiUUI0TjXIg-5" edge="1">
          <mxGeometry width="50" height="50" relative="1" as="geometry">
            <mxPoint x="490" y="567" as="sourcePoint" />
            <mxPoint x="410" y="737" as="targetPoint" />
          </mxGeometry>
        </mxCell>
        <mxCell id="G3qJ_SjWnHiUUI0TjXIg-7" value="1:N" style="edgeLabel;html=1;align=center;verticalAlign=middle;resizable=0;points=[];" parent="G3qJ_SjWnHiUUI0TjXIg-3" vertex="1" connectable="0">
          <mxGeometry x="-0.0479" y="-1" relative="1" as="geometry">
            <mxPoint as="offset" />
          </mxGeometry>
        </mxCell>
        <mxCell id="G3qJ_SjWnHiUUI0TjXIg-4" value="" style="endArrow=none;html=1;rounded=0;" parent="1" source="EXCapHJ6gCYgwVX0uH0I-5" target="x9cMc5ZENm_dU33en5SK-2" edge="1">
          <mxGeometry width="50" height="50" relative="1" as="geometry">
            <mxPoint x="990" y="437" as="sourcePoint" />
            <mxPoint x="1040" y="387" as="targetPoint" />
          </mxGeometry>
        </mxCell>
        <mxCell id="G3qJ_SjWnHiUUI0TjXIg-6" value="1:N" style="edgeLabel;html=1;align=center;verticalAlign=middle;resizable=0;points=[];" parent="G3qJ_SjWnHiUUI0TjXIg-4" vertex="1" connectable="0">
          <mxGeometry x="0.099" relative="1" as="geometry">
            <mxPoint as="offset" />
          </mxGeometry>
        </mxCell>
        <mxCell id="G3qJ_SjWnHiUUI0TjXIg-5" value="AFICIÓN" style="rounded=0;whiteSpace=wrap;html=1;" parent="1" vertex="1">
          <mxGeometry x="374" y="667" width="80" height="40" as="geometry" />
        </mxCell>
        <mxCell id="G3qJ_SjWnHiUUI0TjXIg-8" value="" style="endArrow=none;html=1;rounded=0;entryX=0;entryY=0.5;entryDx=0;entryDy=0;" parent="1" source="EXCapHJ6gCYgwVX0uH0I-5" target="EXCapHJ6gCYgwVX0uH0I-1" edge="1">
          <mxGeometry width="50" height="50" relative="1" as="geometry">
            <mxPoint x="820" y="467" as="sourcePoint" />
            <mxPoint x="870" y="417" as="targetPoint" />
            <Array as="points">
              <mxPoint x="580" y="477" />
              <mxPoint x="580" y="422" />
            </Array>
          </mxGeometry>
        </mxCell>
        <mxCell id="G3qJ_SjWnHiUUI0TjXIg-9" value="1:N" style="edgeLabel;html=1;align=center;verticalAlign=middle;resizable=0;points=[];" parent="G3qJ_SjWnHiUUI0TjXIg-8" vertex="1" connectable="0">
          <mxGeometry x="0.6677" y="1" relative="1" as="geometry">
            <mxPoint x="18" y="1" as="offset" />
          </mxGeometry>
        </mxCell>
        <mxCell id="G3qJ_SjWnHiUUI0TjXIg-12" value="NO&lt;div&gt;COINCIDE&lt;/div&gt;" style="rhombus;whiteSpace=wrap;html=1;strokeWidth=1;" parent="1" vertex="1">
          <mxGeometry x="668.22" y="474.37" width="103.56" height="89.75" as="geometry" />
        </mxCell>
        <mxCell id="G3qJ_SjWnHiUUI0TjXIg-13" value="VALORACION" style="ellipse;whiteSpace=wrap;html=1;" parent="1" vertex="1">
          <mxGeometry x="955" y="544" width="90" height="68" as="geometry" />
        </mxCell>
        <mxCell id="G3qJ_SjWnHiUUI0TjXIg-16" value="" style="endArrow=none;html=1;rounded=0;entryX=0;entryY=0.5;entryDx=0;entryDy=0;exitX=1;exitY=0.5;exitDx=0;exitDy=0;" parent="1" source="G3qJ_SjWnHiUUI0TjXIg-12" target="EXCapHJ6gCYgwVX0uH0I-7" edge="1">
          <mxGeometry width="50" height="50" relative="1" as="geometry">
            <mxPoint x="790" y="527" as="sourcePoint" />
            <mxPoint x="830" y="417" as="targetPoint" />
            <Array as="points">
              <mxPoint x="850" y="519" />
              <mxPoint x="850" y="477" />
            </Array>
          </mxGeometry>
        </mxCell>
        <mxCell id="G3qJ_SjWnHiUUI0TjXIg-19" value="0:N" style="edgeLabel;html=1;align=center;verticalAlign=middle;resizable=0;points=[];" parent="G3qJ_SjWnHiUUI0TjXIg-16" vertex="1" connectable="0">
          <mxGeometry x="-0.7273" relative="1" as="geometry">
            <mxPoint as="offset" />
          </mxGeometry>
        </mxCell>
        <mxCell id="G3qJ_SjWnHiUUI0TjXIg-17" value="" style="endArrow=none;html=1;rounded=0;entryX=0;entryY=0.5;entryDx=0;entryDy=0;" parent="1" source="EXCapHJ6gCYgwVX0uH0I-5" target="G3qJ_SjWnHiUUI0TjXIg-12" edge="1">
          <mxGeometry width="50" height="50" relative="1" as="geometry">
            <mxPoint x="780" y="467" as="sourcePoint" />
            <mxPoint x="830" y="417" as="targetPoint" />
            <Array as="points">
              <mxPoint x="580" y="477" />
              <mxPoint x="580" y="519" />
            </Array>
          </mxGeometry>
        </mxCell>
        <mxCell id="G3qJ_SjWnHiUUI0TjXIg-18" value="1:N" style="edgeLabel;html=1;align=center;verticalAlign=middle;resizable=0;points=[];" parent="G3qJ_SjWnHiUUI0TjXIg-17" vertex="1" connectable="0">
          <mxGeometry x="0.7983" relative="1" as="geometry">
            <mxPoint as="offset" />
          </mxGeometry>
        </mxCell>
        <mxCell id="G3qJ_SjWnHiUUI0TjXIg-22" value="&lt;u&gt;CÓDIGO&lt;/u&gt;" style="ellipse;whiteSpace=wrap;html=1;" parent="1" vertex="1">
          <mxGeometry x="270" y="687" width="70" height="50" as="geometry" />
        </mxCell>
        <mxCell id="G3qJ_SjWnHiUUI0TjXIg-23" value="NOMBRE" style="ellipse;whiteSpace=wrap;html=1;" parent="1" vertex="1">
          <mxGeometry x="270" y="612" width="70" height="50" as="geometry" />
        </mxCell>
        <mxCell id="G3qJ_SjWnHiUUI0TjXIg-26" value="" style="endArrow=none;html=1;rounded=0;" parent="1" source="G3qJ_SjWnHiUUI0TjXIg-5" target="G3qJ_SjWnHiUUI0TjXIg-23" edge="1">
          <mxGeometry width="50" height="50" relative="1" as="geometry">
            <mxPoint x="760" y="757" as="sourcePoint" />
            <mxPoint x="810" y="707" as="targetPoint" />
          </mxGeometry>
        </mxCell>
        <mxCell id="G3qJ_SjWnHiUUI0TjXIg-27" value="" style="endArrow=none;html=1;rounded=0;" parent="1" source="G3qJ_SjWnHiUUI0TjXIg-5" target="G3qJ_SjWnHiUUI0TjXIg-22" edge="1">
          <mxGeometry width="50" height="50" relative="1" as="geometry">
            <mxPoint x="760" y="757" as="sourcePoint" />
            <mxPoint x="810" y="707" as="targetPoint" />
          </mxGeometry>
        </mxCell>
        <mxCell id="G3qJ_SjWnHiUUI0TjXIg-29" value="UBICACIÓN" style="rounded=0;whiteSpace=wrap;html=1;strokeWidth=1;" parent="1" vertex="1">
          <mxGeometry x="1280" y="447" width="120" height="60" as="geometry" />
        </mxCell>
        <mxCell id="G3qJ_SjWnHiUUI0TjXIg-30" value="&lt;u&gt;CÓDIGO&lt;/u&gt;" style="ellipse;whiteSpace=wrap;html=1;" parent="1" vertex="1">
          <mxGeometry x="1417.4999999999998" y="502" width="90" height="60" as="geometry" />
        </mxCell>
        <mxCell id="G3qJ_SjWnHiUUI0TjXIg-31" value="" style="endArrow=none;html=1;rounded=0;" parent="1" source="G3qJ_SjWnHiUUI0TjXIg-30" target="G3qJ_SjWnHiUUI0TjXIg-29" edge="1">
          <mxGeometry width="50" height="50" relative="1" as="geometry">
            <mxPoint x="1060" y="657" as="sourcePoint" />
            <mxPoint x="1110" y="607" as="targetPoint" />
          </mxGeometry>
        </mxCell>
        <mxCell id="G3qJ_SjWnHiUUI0TjXIg-32" value="CATEGORÍA" style="rounded=0;whiteSpace=wrap;html=1;strokeWidth=1;" parent="1" vertex="1">
          <mxGeometry x="366" y="867" width="96" height="40" as="geometry" />
        </mxCell>
        <mxCell id="G3qJ_SjWnHiUUI0TjXIg-33" value="" style="endArrow=none;html=1;rounded=0;" parent="1" source="G3qJ_SjWnHiUUI0TjXIg-5" target="G3qJ_SjWnHiUUI0TjXIg-34" edge="1">
          <mxGeometry width="50" height="50" relative="1" as="geometry">
            <mxPoint x="640" y="557" as="sourcePoint" />
            <mxPoint x="414" y="777" as="targetPoint" />
          </mxGeometry>
        </mxCell>
        <mxCell id="G3qJ_SjWnHiUUI0TjXIg-36" value="1:N" style="edgeLabel;html=1;align=center;verticalAlign=middle;resizable=0;points=[];" parent="G3qJ_SjWnHiUUI0TjXIg-33" vertex="1" connectable="0">
          <mxGeometry x="0.2432" y="4" relative="1" as="geometry">
            <mxPoint x="-4" y="-5" as="offset" />
          </mxGeometry>
        </mxCell>
        <mxCell id="G3qJ_SjWnHiUUI0TjXIg-34" value="CONTIENE" style="rhombus;whiteSpace=wrap;html=1;" parent="1" vertex="1">
          <mxGeometry x="369.5" y="747" width="90.5" height="80" as="geometry" />
        </mxCell>
        <mxCell id="G3qJ_SjWnHiUUI0TjXIg-35" value="" style="endArrow=none;html=1;rounded=0;" parent="1" source="G3qJ_SjWnHiUUI0TjXIg-34" target="G3qJ_SjWnHiUUI0TjXIg-32" edge="1">
          <mxGeometry width="50" height="50" relative="1" as="geometry">
            <mxPoint x="640" y="757" as="sourcePoint" />
            <mxPoint x="690" y="707" as="targetPoint" />
          </mxGeometry>
        </mxCell>
        <mxCell id="G3qJ_SjWnHiUUI0TjXIg-37" value="1:1" style="edgeLabel;html=1;align=center;verticalAlign=middle;resizable=0;points=[];" parent="G3qJ_SjWnHiUUI0TjXIg-35" vertex="1" connectable="0">
          <mxGeometry x="-0.1241" y="-1" relative="1" as="geometry">
            <mxPoint as="offset" />
          </mxGeometry>
        </mxCell>
        <mxCell id="G3qJ_SjWnHiUUI0TjXIg-38" value="CALLE" style="ellipse;whiteSpace=wrap;html=1;" parent="1" vertex="1">
          <mxGeometry x="1480" y="277" width="70" height="50" as="geometry" />
        </mxCell>
        <mxCell id="G3qJ_SjWnHiUUI0TjXIg-39" value="CP" style="ellipse;whiteSpace=wrap;html=1;" parent="1" vertex="1">
          <mxGeometry x="1570" y="397" width="60" height="40" as="geometry" />
        </mxCell>
        <mxCell id="G3qJ_SjWnHiUUI0TjXIg-40" value="NÚMERO" style="ellipse;whiteSpace=wrap;html=1;" parent="1" vertex="1">
          <mxGeometry x="1540" y="322" width="70" height="55" as="geometry" />
        </mxCell>
        <mxCell id="G3qJ_SjWnHiUUI0TjXIg-41" value="" style="endArrow=none;html=1;rounded=0;" parent="1" source="F3HrLOQjKa00HK4MqhvZ-7" target="G3qJ_SjWnHiUUI0TjXIg-39" edge="1">
          <mxGeometry width="50" height="50" relative="1" as="geometry">
            <mxPoint x="1230" y="477" as="sourcePoint" />
            <mxPoint x="1280" y="427" as="targetPoint" />
          </mxGeometry>
        </mxCell>
        <mxCell id="G3qJ_SjWnHiUUI0TjXIg-42" value="" style="endArrow=none;html=1;rounded=0;" parent="1" source="F3HrLOQjKa00HK4MqhvZ-7" target="G3qJ_SjWnHiUUI0TjXIg-40" edge="1">
          <mxGeometry width="50" height="50" relative="1" as="geometry">
            <mxPoint x="1230" y="477" as="sourcePoint" />
            <mxPoint x="1280" y="427" as="targetPoint" />
          </mxGeometry>
        </mxCell>
        <mxCell id="G3qJ_SjWnHiUUI0TjXIg-43" value="" style="endArrow=none;html=1;rounded=0;" parent="1" source="F3HrLOQjKa00HK4MqhvZ-7" target="G3qJ_SjWnHiUUI0TjXIg-38" edge="1">
          <mxGeometry width="50" height="50" relative="1" as="geometry">
            <mxPoint x="1230" y="477" as="sourcePoint" />
            <mxPoint x="1280" y="427" as="targetPoint" />
          </mxGeometry>
        </mxCell>
        <mxCell id="DLDQ-ocfq3cPrbs6TI_T-1" value="&lt;u&gt;CÓDIGO&lt;/u&gt;" style="ellipse;whiteSpace=wrap;html=1;" parent="1" vertex="1">
          <mxGeometry x="294" y="927" width="70" height="50" as="geometry" />
        </mxCell>
        <mxCell id="DLDQ-ocfq3cPrbs6TI_T-2" value="NOMBRE" style="ellipse;whiteSpace=wrap;html=1;" parent="1" vertex="1">
          <mxGeometry x="379" y="947" width="70" height="50" as="geometry" />
        </mxCell>
        <mxCell id="DLDQ-ocfq3cPrbs6TI_T-3" value="" style="endArrow=none;html=1;rounded=0;" parent="1" source="G3qJ_SjWnHiUUI0TjXIg-32" target="DLDQ-ocfq3cPrbs6TI_T-2" edge="1">
          <mxGeometry width="50" height="50" relative="1" as="geometry">
            <mxPoint x="800" y="757" as="sourcePoint" />
            <mxPoint x="850" y="707" as="targetPoint" />
          </mxGeometry>
        </mxCell>
        <mxCell id="DLDQ-ocfq3cPrbs6TI_T-4" value="" style="endArrow=none;html=1;rounded=0;" parent="1" source="G3qJ_SjWnHiUUI0TjXIg-32" target="DLDQ-ocfq3cPrbs6TI_T-1" edge="1">
          <mxGeometry width="50" height="50" relative="1" as="geometry">
            <mxPoint x="800" y="757" as="sourcePoint" />
            <mxPoint x="850" y="707" as="targetPoint" />
          </mxGeometry>
        </mxCell>
        <mxCell id="DLDQ-ocfq3cPrbs6TI_T-5" value="CONTRASEÑA" style="ellipse;whiteSpace=wrap;html=1;" parent="1" vertex="1">
          <mxGeometry x="190" y="199.5" width="90" height="65" as="geometry" />
        </mxCell>
        <mxCell id="DLDQ-ocfq3cPrbs6TI_T-6" value="E-MAIL" style="ellipse;whiteSpace=wrap;html=1;" parent="1" vertex="1">
          <mxGeometry x="320" y="287" width="90" height="60" as="geometry" />
        </mxCell>
        <mxCell id="DLDQ-ocfq3cPrbs6TI_T-7" value="" style="endArrow=none;html=1;rounded=0;" parent="1" source="DLDQ-ocfq3cPrbs6TI_T-6" target="EXCapHJ6gCYgwVX0uH0I-5" edge="1">
          <mxGeometry width="50" height="50" relative="1" as="geometry">
            <mxPoint x="800" y="627" as="sourcePoint" />
            <mxPoint x="850" y="577" as="targetPoint" />
          </mxGeometry>
        </mxCell>
        <mxCell id="DLDQ-ocfq3cPrbs6TI_T-9" value="" style="endArrow=none;html=1;rounded=0;" parent="1" source="EXCapHJ6gCYgwVX0uH0I-5" target="DLDQ-ocfq3cPrbs6TI_T-5" edge="1">
          <mxGeometry width="50" height="50" relative="1" as="geometry">
            <mxPoint x="800" y="627" as="sourcePoint" />
            <mxPoint x="850" y="577" as="targetPoint" />
          </mxGeometry>
        </mxCell>
        <mxCell id="DLDQ-ocfq3cPrbs6TI_T-10" value="DIRECCIÓN" style="ellipse;whiteSpace=wrap;html=1;dashed=1;" parent="1" vertex="1">
          <mxGeometry x="129.99999999999977" y="357" width="90" height="60" as="geometry" />
        </mxCell>
        <mxCell id="DLDQ-ocfq3cPrbs6TI_T-11" value="" style="endArrow=none;html=1;rounded=0;" parent="1" source="EXCapHJ6gCYgwVX0uH0I-5" target="DLDQ-ocfq3cPrbs6TI_T-10" edge="1">
          <mxGeometry width="50" height="50" relative="1" as="geometry">
            <mxPoint x="-43" y="447" as="sourcePoint" />
            <mxPoint x="-26.74499999999989" y="422.28999999999996" as="targetPoint" />
          </mxGeometry>
        </mxCell>
        <mxCell id="DLDQ-ocfq3cPrbs6TI_T-12" value="CALLE" style="ellipse;whiteSpace=wrap;html=1;" parent="1" vertex="1">
          <mxGeometry x="70" y="307.5" width="70" height="50" as="geometry" />
        </mxCell>
        <mxCell id="DLDQ-ocfq3cPrbs6TI_T-13" value="CP" style="ellipse;whiteSpace=wrap;html=1;" parent="1" vertex="1">
          <mxGeometry x="50" y="367.5" width="60" height="40" as="geometry" />
        </mxCell>
        <mxCell id="DLDQ-ocfq3cPrbs6TI_T-14" value="NÚMERO" style="ellipse;whiteSpace=wrap;html=1;" parent="1" vertex="1">
          <mxGeometry x="90" y="232" width="70" height="55" as="geometry" />
        </mxCell>
        <mxCell id="DLDQ-ocfq3cPrbs6TI_T-15" value="" style="endArrow=none;html=1;rounded=0;" parent="1" source="DLDQ-ocfq3cPrbs6TI_T-10" target="DLDQ-ocfq3cPrbs6TI_T-13" edge="1">
          <mxGeometry width="50" height="50" relative="1" as="geometry">
            <mxPoint x="-210" y="477" as="sourcePoint" />
            <mxPoint x="-160" y="427" as="targetPoint" />
          </mxGeometry>
        </mxCell>
        <mxCell id="DLDQ-ocfq3cPrbs6TI_T-16" value="" style="endArrow=none;html=1;rounded=0;" parent="1" source="DLDQ-ocfq3cPrbs6TI_T-10" target="DLDQ-ocfq3cPrbs6TI_T-14" edge="1">
          <mxGeometry width="50" height="50" relative="1" as="geometry">
            <mxPoint x="-210" y="477" as="sourcePoint" />
            <mxPoint x="-160" y="427" as="targetPoint" />
          </mxGeometry>
        </mxCell>
        <mxCell id="DLDQ-ocfq3cPrbs6TI_T-17" value="" style="endArrow=none;html=1;rounded=0;" parent="1" source="DLDQ-ocfq3cPrbs6TI_T-10" target="DLDQ-ocfq3cPrbs6TI_T-12" edge="1">
          <mxGeometry width="50" height="50" relative="1" as="geometry">
            <mxPoint x="-210" y="477" as="sourcePoint" />
            <mxPoint x="-160" y="427" as="targetPoint" />
          </mxGeometry>
        </mxCell>
        <mxCell id="DLDQ-ocfq3cPrbs6TI_T-18" value="REALIZA" style="rhombus;whiteSpace=wrap;html=1;" parent="1" vertex="1">
          <mxGeometry x="1140" y="439.5" width="80" height="75" as="geometry" />
        </mxCell>
        <mxCell id="DLDQ-ocfq3cPrbs6TI_T-19" value="" style="endArrow=none;html=1;rounded=0;" parent="1" source="DLDQ-ocfq3cPrbs6TI_T-18" target="G3qJ_SjWnHiUUI0TjXIg-29" edge="1">
          <mxGeometry width="50" height="50" relative="1" as="geometry">
            <mxPoint x="800" y="617" as="sourcePoint" />
            <mxPoint x="850" y="567" as="targetPoint" />
          </mxGeometry>
        </mxCell>
        <mxCell id="DLDQ-ocfq3cPrbs6TI_T-21" value="1:1" style="edgeLabel;html=1;align=center;verticalAlign=middle;resizable=0;points=[];" parent="DLDQ-ocfq3cPrbs6TI_T-19" vertex="1" connectable="0">
          <mxGeometry x="-0.3448" relative="1" as="geometry">
            <mxPoint as="offset" />
          </mxGeometry>
        </mxCell>
        <mxCell id="DLDQ-ocfq3cPrbs6TI_T-20" value="" style="endArrow=none;html=1;rounded=0;" parent="1" source="DLDQ-ocfq3cPrbs6TI_T-18" target="EXCapHJ6gCYgwVX0uH0I-7" edge="1">
          <mxGeometry width="50" height="50" relative="1" as="geometry">
            <mxPoint x="800" y="617" as="sourcePoint" />
            <mxPoint x="850" y="567" as="targetPoint" />
          </mxGeometry>
        </mxCell>
        <mxCell id="DLDQ-ocfq3cPrbs6TI_T-22" value="1:N" style="edgeLabel;html=1;align=center;verticalAlign=middle;resizable=0;points=[];" parent="DLDQ-ocfq3cPrbs6TI_T-20" vertex="1" connectable="0">
          <mxGeometry x="-0.2845" relative="1" as="geometry">
            <mxPoint as="offset" />
          </mxGeometry>
        </mxCell>
        <mxCell id="DLDQ-ocfq3cPrbs6TI_T-23" value="Entendemos que la cita se realiza en 1 ubicación" style="text;html=1;align=center;verticalAlign=middle;whiteSpace=wrap;rounded=0;" parent="1" vertex="1">
          <mxGeometry x="1150" y="377" width="139" height="50" as="geometry" />
        </mxCell>
        <mxCell id="DLDQ-ocfq3cPrbs6TI_T-24" value="&lt;font style=&quot;font-size: 14px;&quot;&gt;persona se enlaza con otra persona para realizar una cita&amp;nbsp;&lt;/font&gt;" style="text;html=1;align=center;verticalAlign=middle;whiteSpace=wrap;rounded=0;" parent="1" vertex="1">
          <mxGeometry x="608.75" y="565.33" width="200" height="90" as="geometry" />
        </mxCell>
        <mxCell id="V7tewH4TTanBYQGN0ys--1" value="SE&lt;div&gt;GUSTAN&lt;/div&gt;" style="rhombus;whiteSpace=wrap;html=1;" parent="1" vertex="1">
          <mxGeometry x="140" y="476.5" width="90" height="85.5" as="geometry" />
        </mxCell>
        <mxCell id="V7tewH4TTanBYQGN0ys--2" value="" style="endArrow=none;html=1;rounded=0;entryX=0.5;entryY=0;entryDx=0;entryDy=0;" parent="1" source="EXCapHJ6gCYgwVX0uH0I-5" target="V7tewH4TTanBYQGN0ys--1" edge="1">
          <mxGeometry width="50" height="50" relative="1" as="geometry">
            <mxPoint x="800" y="610" as="sourcePoint" />
            <mxPoint x="850" y="560" as="targetPoint" />
          </mxGeometry>
        </mxCell>
        <mxCell id="V7tewH4TTanBYQGN0ys--4" value="0:N" style="edgeLabel;html=1;align=center;verticalAlign=middle;resizable=0;points=[];" parent="V7tewH4TTanBYQGN0ys--2" vertex="1" connectable="0">
          <mxGeometry x="0.7782" y="-1" relative="1" as="geometry">
            <mxPoint as="offset" />
          </mxGeometry>
        </mxCell>
        <mxCell id="V7tewH4TTanBYQGN0ys--3" value="" style="endArrow=none;html=1;rounded=0;entryX=0.25;entryY=1;entryDx=0;entryDy=0;" parent="1" source="V7tewH4TTanBYQGN0ys--1" edge="1">
          <mxGeometry width="50" height="50" relative="1" as="geometry">
            <mxPoint x="229" y="523" as="sourcePoint" />
            <mxPoint x="388" y="502" as="targetPoint" />
            <Array as="points">
              <mxPoint x="388" y="520" />
            </Array>
          </mxGeometry>
        </mxCell>
        <mxCell id="V7tewH4TTanBYQGN0ys--5" value="0:N" style="edgeLabel;html=1;align=center;verticalAlign=middle;resizable=0;points=[];" parent="V7tewH4TTanBYQGN0ys--3" vertex="1" connectable="0">
          <mxGeometry x="-0.8402" y="1" relative="1" as="geometry">
            <mxPoint as="offset" />
          </mxGeometry>
        </mxCell>
        <mxCell id="wHvMyqBExrXRrgWg0GTp-1" value="" style="endArrow=none;html=1;rounded=0;" edge="1" parent="1" source="G3qJ_SjWnHiUUI0TjXIg-13" target="EXCapHJ6gCYgwVX0uH0I-7">
          <mxGeometry width="50" height="50" relative="1" as="geometry">
            <mxPoint x="770" y="460" as="sourcePoint" />
            <mxPoint x="820" y="410" as="targetPoint" />
          </mxGeometry>
        </mxCell>
      </root>
    </mxGraphModel>
  </diagram>
</mxfile>
